name H:\OpenSim\Running\SimulationDataAndSetupFiles\ExpData\grf_run.mot
datacolumns 19
datarows 30
range 0.20333333 0.30000000
endheader

                time	   R_ground_force_vx	   R_ground_force_vy	   R_ground_force_vz	   R_ground_force_px	   R_ground_force_py	   R_ground_force_pz	   L_ground_force_vx	   L_ground_force_vy	   L_ground_force_vz	   L_ground_force_px	   L_ground_force_py	   L_ground_force_pz	   R_ground_torque_x	   R_ground_torque_y	   R_ground_torque_z	   L_ground_torque_x	   L_ground_torque_y	   L_ground_torque_z	
          0.20333333	        177.67915052	       1382.45263549	         19.87724701	          0.35223989	          0.00000000	         -0.22403936	          0.00000000	          0.00000000	          0.00000000	          0.00000000	          0.00000000	          0.00000000	          0.00000000	          3.34641184	          0.00000000	          0.00000000	          0.00000000	          0.00000000	
          0.20666667	        186.45263591	       1329.45318913	         18.36536971	          0.35247306	          0.00000000	         -0.22392487	          0.00000000	          0.00000000	          0.00000000	          0.00000000	          0.00000000	          0.00000000	          0.00000000	          2.88745374	          0.00000000	          0.00000000	          0.00000000	          0.00000000	
          0.21000000	        194.26879320	       1274.69934244	         16.82518451	          0.35273880	          0.00000000	         -0.22380778	          0.00000000	          0.00000000	          0.00000000	          0.00000000	          0.00000000	          0.00000000	          0.00000000	          2.42444619	          0.00000000	          0.00000000	          0.00000000	          0.00000000	
          0.21333333	        201.05521233	       1218.27679456	         15.34949593	          0.35303904	          0.00000000	         -0.22369981	          0.00000000	          0.00000000	          0.00000000	          0.00000000	          0.00000000	          0.00000000	          0.00000000	          1.96885035	          0.00000000	          0.00000000	          0.00000000	          0.00000000	
          0.21666667	        206.66452125	       1160.30736799	         14.02959912	          0.35337891	          0.00000000	         -0.22361426	          0.00000000	          0.00000000	          0.00000000	          0.00000000	          0.00000000	          0.00000000	          0.00000000	          1.53231572	          0.00000000	          0.00000000	          0.00000000	          0.00000000	
          0.22000000	        210.91496866	       1100.97648259	         12.93484384	          0.35376559	          0.00000000	         -0.22355832	          0.00000000	          0.00000000	          0.00000000	          0.00000000	          0.00000000	          0.00000000	          0.00000000	          1.12449332	          0.00000000	          0.00000000	          0.00000000	          0.00000000	
          0.22333333	        213.64825347	       1040.50873397	         12.10750059	          0.35420554	          0.00000000	         -0.22352459	          0.00000000	          0.00000000	          0.00000000	          0.00000000	          0.00000000	          0.00000000	          0.00000000	          0.75126383	          0.00000000	          0.00000000	          0.00000000	          0.00000000	
          0.22666667	        214.76711572	        979.11689632	         11.56613360	          0.35469968	          0.00000000	         -0.22348873	          0.00000000	          0.00000000	          0.00000000	          0.00000000	          0.00000000	          0.00000000	          0.00000000	          0.41490079	          0.00000000	          0.00000000	          0.00000000	          0.00000000	
          0.23000000	        214.23082791	        916.95579777	         11.30652092	          0.35524158	          0.00000000	         -0.22341694	          0.00000000	          0.00000000	          0.00000000	          0.00000000	          0.00000000	          0.00000000	          0.00000000	          0.11610432	          0.00000000	          0.00000000	          0.00000000	          0.00000000	
          0.23333333	        212.02075566	        854.12055695	         11.30074741	          0.35582035	          0.00000000	         -0.22327835	          0.00000000	          0.00000000	          0.00000000	          0.00000000	          0.00000000	          0.00000000	          0.00000000	         -0.14366172	          0.00000000	          0.00000000	          0.00000000	          0.00000000	
          0.23666667	        208.10640205	        790.70005378	         11.49373288	          0.35642770	          0.00000000	         -0.22305385	          0.00000000	          0.00000000	          0.00000000	          0.00000000	          0.00000000	          0.00000000	          0.00000000	         -0.36054748	          0.00000000	          0.00000000	          0.00000000	          0.00000000	
          0.24000000	        202.43176026	        726.85646987	         11.80960179	          0.35706756	          0.00000000	         -0.22273664	          0.00000000	          0.00000000	          0.00000000	          0.00000000	          0.00000000	          0.00000000	          0.00000000	         -0.52819063	          0.00000000	          0.00000000	          0.00000000	          0.00000000	
          0.24333333	        194.92156161	        662.87275390	         12.16655585	          0.35776914	          0.00000000	         -0.22232828	          0.00000000	          0.00000000	          0.00000000	          0.00000000	          0.00000000	          0.00000000	          0.00000000	         -0.63854247	          0.00000000	          0.00000000	          0.00000000	          0.00000000	
          0.24666667	        185.49617231	        599.16006028	         12.48451128	          0.35859928	          0.00000000	         -0.22183603	          0.00000000	          0.00000000	          0.00000000	          0.00000000	          0.00000000	          0.00000000	          0.00000000	         -0.68401160	          0.00000000	          0.00000000	          0.00000000	          0.00000000	
          0.25000000	        174.07619153	        536.22946417	         12.68035360	          0.35967468	          0.00000000	         -0.22127672	          0.00000000	          0.00000000	          0.00000000	          0.00000000	          0.00000000	          0.00000000	          0.00000000	         -0.66019330	          0.00000000	          0.00000000	          0.00000000	          0.00000000	
          0.25333333	        160.59544566	        474.69081307	         12.65511594	          0.36116237	          0.00000000	         -0.22068183	          0.00000000	          0.00000000	          0.00000000	          0.00000000	          0.00000000	          0.00000000	          0.00000000	         -0.56968103	          0.00000000	          0.00000000	          0.00000000	          0.00000000	
          0.25666667	        145.04948743	        415.30095883	         12.29513165	          0.36325817	          0.00000000	         -0.22009903	          0.00000000	          0.00000000	          0.00000000	          0.00000000	          0.00000000	          0.00000000	          0.00000000	         -0.42439887	          0.00000000	          0.00000000	          0.00000000	          0.00000000	
          0.26000000	        127.60594476	        359.00582190	         11.50527352	          0.36613189	          0.00000000	         -0.21958552	          0.00000000	          0.00000000	          0.00000000	          0.00000000	          0.00000000	          0.00000000	          0.00000000	         -0.24574558	          0.00000000	          0.00000000	          0.00000000	          0.00000000	
          0.26333333	        108.75900476	        306.87606088	         10.26823006	          0.36985145	          0.00000000	         -0.21918729	          0.00000000	          0.00000000	          0.00000000	          0.00000000	          0.00000000	          0.00000000	          0.00000000	         -0.06107571	          0.00000000	          0.00000000	          0.00000000	          0.00000000	
          0.26666667	         89.42760902	        259.89468450	          8.68794910	          0.37431157	          0.00000000	         -0.21891761	          0.00000000	          0.00000000	          0.00000000	          0.00000000	          0.00000000	          0.00000000	          0.00000000	          0.10232322	          0.00000000	          0.00000000	          0.00000000	          0.00000000	
          0.27000000	         70.86558805	        218.64319889	          6.97715793	          0.37922029	          0.00000000	         -0.21873046	          0.00000000	          0.00000000	          0.00000000	          0.00000000	          0.00000000	          0.00000000	          0.00000000	          0.22378346	          0.00000000	          0.00000000	          0.00000000	          0.00000000	
          0.27333333	         54.35828301	        183.07986825	          5.37694042	          0.38413917	          0.00000000	         -0.21852246	          0.00000000	          0.00000000	          0.00000000	          0.00000000	          0.00000000	          0.00000000	          0.00000000	          0.29363698	          0.00000000	          0.00000000	          0.00000000	          0.00000000	
          0.27666667	         40.82387374	        152.56064522	          4.05329782	          0.38856405	          0.00000000	         -0.21815458	          0.00000000	          0.00000000	          0.00000000	          0.00000000	          0.00000000	          0.00000000	          0.00000000	          0.31419853	          0.00000000	          0.00000000	          0.00000000	          0.00000000	
          0.28000000	         30.54090154	        126.09143937	          3.03889151	          0.39186801	          0.00000000	         -0.21749189	          0.00000000	          0.00000000	          0.00000000	          0.00000000	          0.00000000	          0.00000000	          0.00000000	          0.29638174	          0.00000000	          0.00000000	          0.00000000	          0.00000000	
          0.28333333	         23.15582488	        102.69424876	          2.26072563	          0.39321864	          0.00000000	         -0.21644474	          0.00000000	          0.00000000	          0.00000000	          0.00000000	          0.00000000	          0.00000000	          0.00000000	          0.25482475	          0.00000000	          0.00000000	          0.00000000	          0.00000000	
          0.28666667	         17.91720234	         81.67576614	          1.62001494	          0.39147836	          0.00000000	         -0.21498901	          0.00000000	          0.00000000	          0.00000000	          0.00000000	          0.00000000	          0.00000000	          0.00000000	          0.20309634	          0.00000000	          0.00000000	          0.00000000	          0.00000000	
          0.29000000	         13.99858474	         62.72763150	          1.06439729	          0.38546291	          0.00000000	         -0.21316766	          0.00000000	          0.00000000	          0.00000000	          0.00000000	          0.00000000	          0.00000000	          0.00000000	          0.15114189	          0.00000000	          0.00000000	          0.00000000	          0.00000000	
          0.29333333	         10.76355072	         45.90950605	          0.60130351	          0.37462372	          0.00000000	         -0.21110367	          0.00000000	          0.00000000	          0.00000000	          0.00000000	          0.00000000	          0.00000000	          0.00000000	          0.10508635	          0.00000000	          0.00000000	          0.00000000	          0.00000000	
          0.29666667	          7.89081308	         31.53534546	          0.26246970	          0.35975358	          0.00000000	         -0.20898071	          0.00000000	          0.00000000	          0.00000000	          0.00000000	          0.00000000	          0.00000000	          0.00000000	          0.06790043	          0.00000000	          0.00000000	          0.00000000	          0.00000000	
          0.30000000	          5.34992514	         19.98186488	          0.06067829	          0.00000000	          0.00000000	          0.00000000	          0.00000000	          0.00000000	          0.00000000	          0.00000000	          0.00000000	          0.00000000	          0.00000000	          0.04035922	          0.00000000	          0.00000000	          0.00000000	          0.00000000	
